<mxfile host="Electron" agent="Mozilla/5.0 (Macintosh; Intel Mac OS X 10_15_7) AppleWebKit/537.36 (KHTML, like Gecko) draw.io/27.0.5 Chrome/134.0.6998.205 Electron/35.3.0 Safari/537.36" version="27.0.5">
  <diagram id="Ht1M8jgEwFfnCIfOTk4-" name="Page-1">
    <mxGraphModel dx="936" dy="748" grid="1" gridSize="10" guides="1" tooltips="1" connect="1" arrows="1" fold="1" page="1" pageScale="1" pageWidth="1169" pageHeight="827" math="0" shadow="0">
      <root>
        <mxCell id="0" />
        <mxCell id="1" parent="0" />
        <mxCell id="jeefPXhoTYV4H4RRqc0B-15" value="Created resources" style="swimlane;whiteSpace=wrap;html=1;" parent="1" vertex="1">
          <mxGeometry x="240" y="40" width="550" height="560" as="geometry" />
        </mxCell>
        <mxCell id="jeefPXhoTYV4H4RRqc0B-6" value="Public subnet" style="points=[[0,0],[0.25,0],[0.5,0],[0.75,0],[1,0],[1,0.25],[1,0.5],[1,0.75],[1,1],[0.75,1],[0.5,1],[0.25,1],[0,1],[0,0.75],[0,0.5],[0,0.25]];outlineConnect=0;gradientColor=none;html=1;whiteSpace=wrap;fontSize=12;fontStyle=0;container=1;pointerEvents=0;collapsible=0;recursiveResize=0;shape=mxgraph.aws4.group;grIcon=mxgraph.aws4.group_security_group;grStroke=0;strokeColor=#7AA116;fillColor=#F2F6E8;verticalAlign=top;align=left;spacingLeft=30;fontColor=#248814;dashed=0;" parent="jeefPXhoTYV4H4RRqc0B-15" vertex="1">
          <mxGeometry x="190" y="40" width="340" height="450" as="geometry" />
        </mxCell>
        <mxCell id="jeefPXhoTYV4H4RRqc0B-11" value="" style="swimlane;startSize=0;" parent="jeefPXhoTYV4H4RRqc0B-6" vertex="1">
          <mxGeometry x="10" y="40" width="310" height="360" as="geometry" />
        </mxCell>
        <mxCell id="jeefPXhoTYV4H4RRqc0B-10" value="Amazon ECS" style="sketch=0;outlineConnect=0;fontColor=#232F3E;gradientColor=none;strokeColor=#ffffff;fillColor=#232F3E;dashed=0;verticalLabelPosition=middle;verticalAlign=bottom;align=center;html=1;whiteSpace=wrap;fontSize=10;fontStyle=1;spacing=3;shape=mxgraph.aws4.productIcon;prIcon=mxgraph.aws4.ecs;" parent="jeefPXhoTYV4H4RRqc0B-11" vertex="1">
          <mxGeometry x="15" y="9.899999999999999" width="80" height="100" as="geometry" />
        </mxCell>
        <mxCell id="jeefPXhoTYV4H4RRqc0B-7" value="Trilium task" style="sketch=0;outlineConnect=0;fontColor=#232F3E;gradientColor=none;fillColor=#ED7100;strokeColor=none;dashed=0;verticalLabelPosition=bottom;verticalAlign=top;align=center;html=1;fontSize=12;fontStyle=0;aspect=fixed;pointerEvents=1;shape=mxgraph.aws4.ecs_task;" parent="jeefPXhoTYV4H4RRqc0B-11" vertex="1">
          <mxGeometry x="95" y="138.75" width="61.66" height="80" as="geometry" />
        </mxCell>
        <mxCell id="jeefPXhoTYV4H4RRqc0B-12" value="EBS" style="outlineConnect=0;dashed=0;verticalLabelPosition=bottom;verticalAlign=top;align=center;html=1;shape=mxgraph.aws3.volume;fillColor=#E05243;gradientColor=none;" parent="jeefPXhoTYV4H4RRqc0B-11" vertex="1">
          <mxGeometry x="190" y="147.5" width="45" height="62.5" as="geometry" />
        </mxCell>
        <mxCell id="jeefPXhoTYV4H4RRqc0B-13" value="" style="endArrow=none;html=1;rounded=0;" parent="jeefPXhoTYV4H4RRqc0B-11" source="jeefPXhoTYV4H4RRqc0B-12" target="jeefPXhoTYV4H4RRqc0B-7" edge="1">
          <mxGeometry width="50" height="50" relative="1" as="geometry">
            <mxPoint x="197" y="250" as="sourcePoint" />
            <mxPoint x="250" y="350" as="targetPoint" />
          </mxGeometry>
        </mxCell>
        <mxCell id="jeefPXhoTYV4H4RRqc0B-8" value="Public ip" style="sketch=0;outlineConnect=0;fontColor=#232F3E;gradientColor=none;fillColor=#ED7100;strokeColor=none;dashed=0;verticalLabelPosition=bottom;verticalAlign=top;align=center;html=1;fontSize=12;fontStyle=0;aspect=fixed;pointerEvents=1;shape=mxgraph.aws4.elastic_ip_address;" parent="jeefPXhoTYV4H4RRqc0B-11" vertex="1">
          <mxGeometry x="31" y="175" width="48" height="20" as="geometry" />
        </mxCell>
        <mxCell id="jeefPXhoTYV4H4RRqc0B-19" style="edgeStyle=orthogonalEdgeStyle;rounded=0;orthogonalLoop=1;jettySize=auto;html=1;" parent="jeefPXhoTYV4H4RRqc0B-15" edge="1" target="XU0E0HU4mkjSeat4cqo8-1">
          <mxGeometry relative="1" as="geometry">
            <mxPoint x="40" y="227.5" as="sourcePoint" />
            <mxPoint x="80" y="260" as="targetPoint" />
            <Array as="points">
              <mxPoint x="40" y="260" />
            </Array>
          </mxGeometry>
        </mxCell>
        <mxCell id="jeefPXhoTYV4H4RRqc0B-17" value="Record" style="rounded=1;whiteSpace=wrap;html=1;" parent="jeefPXhoTYV4H4RRqc0B-15" vertex="1">
          <mxGeometry x="10" y="210" width="60" height="25" as="geometry" />
        </mxCell>
        <mxCell id="XU0E0HU4mkjSeat4cqo8-1" value="Amazon Cloudfront" style="sketch=0;outlineConnect=0;fontColor=#232F3E;gradientColor=none;strokeColor=#ffffff;fillColor=#232F3E;dashed=0;verticalLabelPosition=middle;verticalAlign=bottom;align=center;html=1;whiteSpace=wrap;fontSize=10;fontStyle=1;spacing=3;shape=mxgraph.aws4.productIcon;prIcon=mxgraph.aws4.cloudfront;" vertex="1" parent="jeefPXhoTYV4H4RRqc0B-15">
          <mxGeometry x="90" y="210" width="80" height="110" as="geometry" />
        </mxCell>
        <mxCell id="XU0E0HU4mkjSeat4cqo8-2" value="" style="endArrow=classic;html=1;rounded=0;" edge="1" parent="jeefPXhoTYV4H4RRqc0B-15" source="XU0E0HU4mkjSeat4cqo8-1" target="jeefPXhoTYV4H4RRqc0B-8">
          <mxGeometry width="50" height="50" relative="1" as="geometry">
            <mxPoint x="220" y="360" as="sourcePoint" />
            <mxPoint x="270" y="310" as="targetPoint" />
          </mxGeometry>
        </mxCell>
        <mxCell id="jeefPXhoTYV4H4RRqc0B-2" value="Expected resources" style="swimlane;whiteSpace=wrap;html=1;" parent="1" vertex="1">
          <mxGeometry x="20" y="40" width="200" height="280" as="geometry" />
        </mxCell>
        <mxCell id="jeefPXhoTYV4H4RRqc0B-3" value="" style="points=[];aspect=fixed;html=1;align=center;shadow=0;dashed=0;fillColor=#FF6A00;strokeColor=none;shape=mxgraph.alibaba_cloud.dns_domain_name_system;" parent="jeefPXhoTYV4H4RRqc0B-2" vertex="1">
          <mxGeometry x="20" y="40" width="55.800000000000004" height="54.900000000000006" as="geometry" />
        </mxCell>
        <mxCell id="jeefPXhoTYV4H4RRqc0B-4" value="Hosted zone" style="sketch=0;outlineConnect=0;fontColor=#232F3E;gradientColor=none;strokeColor=#232F3E;fillColor=#ffffff;dashed=0;verticalLabelPosition=bottom;verticalAlign=top;align=center;html=1;fontSize=12;fontStyle=0;aspect=fixed;shape=mxgraph.aws4.resourceIcon;resIcon=mxgraph.aws4.hosted_zone;" parent="jeefPXhoTYV4H4RRqc0B-2" vertex="1">
          <mxGeometry x="95" y="150" width="60" height="60" as="geometry" />
        </mxCell>
        <mxCell id="jeefPXhoTYV4H4RRqc0B-5" value="" style="endArrow=none;html=1;rounded=0;entryX=0.376;entryY=0.984;entryDx=0;entryDy=0;entryPerimeter=0;" parent="jeefPXhoTYV4H4RRqc0B-2" source="jeefPXhoTYV4H4RRqc0B-4" edge="1">
          <mxGeometry width="50" height="50" relative="1" as="geometry">
            <mxPoint x="110" y="175.88" as="sourcePoint" />
            <mxPoint x="50.980800000000045" y="94.90160000000003" as="targetPoint" />
            <Array as="points">
              <mxPoint x="51" y="180" />
            </Array>
          </mxGeometry>
        </mxCell>
        <mxCell id="jeefPXhoTYV4H4RRqc0B-20" value="" style="endArrow=classic;html=1;rounded=0;entryX=0;entryY=0.5;entryDx=0;entryDy=0;" parent="1" source="jeefPXhoTYV4H4RRqc0B-4" target="jeefPXhoTYV4H4RRqc0B-17" edge="1">
          <mxGeometry width="50" height="50" relative="1" as="geometry">
            <mxPoint x="470" y="530" as="sourcePoint" />
            <mxPoint x="520" y="480" as="targetPoint" />
          </mxGeometry>
        </mxCell>
        <mxCell id="jeefPXhoTYV4H4RRqc0B-21" value="TODO: email sending" style="text;html=1;align=center;verticalAlign=middle;resizable=0;points=[];autosize=1;strokeColor=none;fillColor=none;fontSize=23;" parent="1" vertex="1">
          <mxGeometry x="160" y="663" width="240" height="40" as="geometry" />
        </mxCell>
        <mxCell id="jeefPXhoTYV4H4RRqc0B-22" value="&lt;font style=&quot;font-size: 24px;&quot;&gt;TODO: scheduler&lt;/font&gt;" style="text;html=1;align=center;verticalAlign=middle;resizable=0;points=[];autosize=1;strokeColor=none;fillColor=none;" parent="1" vertex="1">
          <mxGeometry x="160" y="720" width="210" height="40" as="geometry" />
        </mxCell>
      </root>
    </mxGraphModel>
  </diagram>
</mxfile>
